<?xml version="1.0" encoding="UTF-8" standalone="no"?>
<svg
   version="1.1"
   viewBox="-5 -10 62.666222 83.325401"
   id="svg573"
   width="62.666222"
   height="83.325401"
   xmlns="http://www.w3.org/2000/svg"
   xmlns:svg="http://www.w3.org/2000/svg">
  <defs
     id="defs577" />
  <path
     d="m 53.687277,26.711401 -17.25,-30.7930003 c -2.0352,-3.6797 -5.9219,-5.9530997 -10.125,-5.918 -4.1914,-0.019531 -8.0586,2.25 -10.082,5.918 L -1.0197226,26.711401 c -5.4219,9.7031 -5.2969,21.551 0.32811998,31.137 5.62500002,9.5898 15.90999962,15.477 27.02299962,15.477 11.117,0 21.398,-5.8867 27.023,-15.477 5.6289,-9.5859 5.7539,-21.434 0.33203,-31.137 z m -9.332,33.332 c -4.7812,4.7773 -11.266,7.457 -18.023,7.457 -6.7578,0 -13.238,-2.6797 -18.0199996,-7.457 -4.8125,-4.75 -7.51560002,-11.238 -7.50000002,-18 0.0039,-4.375 1.12110002,-8.6758 3.25000002,-12.5 L 21.312277,-1.2495993 c 1.0117,-1.8047 2.9258,-2.9219 5,-2.9141 2.0742,-0.0078 3.9883,1.1094 5,2.9141 l 17.25,30.7930003 c 2.6992,4.8516 3.7461,10.453 2.9883,15.953 -0.76172,5.5 -3.2852,10.605 -7.1953,14.547 z m -2.5,-24.207 c 0.5,1.0039 0.36719,2.207 -0.33594,3.082 l -17.25,21.918 c -0.53516,0.69531 -1.3711,1.0938 -2.25,1.082 -0.31641,0.0625 -0.64062,0.0625 -0.95703,0 -1.1797,-0.39844 -1.9688,-1.5078 -1.957,-2.75 v -14.668 h -5.7109 c -1.1211,-0.0039 -2.1367,-0.65234 -2.6172,-1.668 -0.48047,-1.0117 -0.33594,-2.2109 0.36719,-3.082 l 17.207,-21.543 0.0039,0.0039 c 0.76953,-0.98047 2.082,-1.3633 3.2578,-0.94922 1.1797,0.41406 1.9609,1.5312 1.9492,2.7812 v 14.332 h 5.668 c 1.0781,-0.04297 2.0938,0.51953 2.625,1.4609 z"
     id="path567" />
</svg>
