<?xml version="1.0" encoding="iso-8859-1"?>
<!-- Uploaded to: SVG Repo, www.svgrepo.com, Generator: SVG Repo Mixer Tools -->
<svg fill="#000000" height="800px" width="800px" version="1.1" id="Layer_1" xmlns="http://www.w3.org/2000/svg" xmlns:xlink="http://www.w3.org/1999/xlink" 
	 viewBox="0 0 512 512" xml:space="preserve">
<g>
	<g>
		<path d="M503.983,163.541c4.428,0,8.017-3.588,8.017-8.017V24.05C512,10.789,501.211,0,487.95,0H24.05C10.788,0,0,10.789,0,24.05
			v463.9C0,501.211,10.788,512,24.05,512h463.9c13.261,0,24.05-10.789,24.05-24.05V206.831c0-4.428-3.588-8.017-8.017-8.017
			c-4.428,0-8.017,3.588-8.017,8.017V487.95c0,4.421-3.596,8.017-8.017,8.017H24.05c-4.421,0-8.017-3.596-8.017-8.017V24.05
			c0-4.421,3.596-8.017,8.017-8.017h463.9c4.421,0,8.017,3.596,8.017,8.017v131.474
			C495.967,159.952,499.555,163.541,503.983,163.541z"/>
	</g>
</g>
<g>
	<g>
		<path d="M256,59.858C147.847,59.858,59.858,147.846,59.858,256c0,22.157,3.668,43.903,10.902,64.635
			c1.459,4.18,6.032,6.388,10.21,4.928c4.18-1.458,6.387-6.03,4.929-10.21c-6.64-19.029-10.007-38.999-10.007-59.352
			c0-99.312,80.797-180.109,180.109-180.109S436.109,156.688,436.109,256S355.312,436.109,256,436.109
			c-58.53,0-113.621-28.611-147.367-76.535c-2.548-3.621-7.55-4.488-11.171-1.938c-3.62,2.549-4.488,7.55-1.939,11.17
			c36.746,52.182,96.737,83.336,160.477,83.336c108.154,0,196.142-87.988,196.142-196.142S364.154,59.858,256,59.858z"/>
	</g>
</g>
<g>
	<g>
		<path d="M359.943,152.135c-27.777-27.799-64.692-43.107-103.946-43.106c-81.039,0-146.971,65.933-146.971,146.972
			c0,7.187,0.524,14.41,1.558,21.469c2.072,14.151,11.294,25.774,24.669,31.093c4.902,1.95,9.978,2.907,15.003,2.907
			c8.803,0,17.441-2.943,24.664-8.647c23.291-18.393,51.328-28.116,81.079-28.116c29.746,0,57.78,9.719,81.07,28.109
			c11.339,8.954,26.131,11.09,39.567,5.714c13.517-5.409,22.812-17.24,24.862-31.652c0.972-6.826,1.468-13.812,1.473-20.765
			C403.002,216.857,387.72,179.931,359.943,152.135z M385.627,274.617c-1.232,8.662-6.82,15.775-14.945,19.025
			c-8.043,3.219-16.895,1.943-23.676-3.412c-21.629-17.078-46.902-27.488-73.886-30.578l30.671-34.08
			c12.691,6.008,24.251,14.419,34.02,24.929l-1.968,1.968c-3.131,3.132-3.131,8.207,0,11.338c1.566,1.565,3.618,2.347,5.669,2.347
			c2.051,0,4.104-0.782,5.669-2.347l25.653-25.653c3.131-3.132,3.131-8.207,0-11.338c-3.132-3.13-8.207-3.13-11.338,0
			l-12.338,12.338c-9.974-10.634-21.567-19.36-34.236-25.951l23.997-26.662c2.962-3.291,2.695-8.36-0.595-11.322
			c-3.29-2.962-8.359-2.696-11.322,0.595l-27.545,30.606c-11.304-4.086-23.222-6.583-35.44-7.346v-9.345
			c0-4.428-3.588-8.017-8.017-8.017c-4.427,0-8.017,3.588-8.017,8.017v9.344c-32.477,2.027-62.843,16.306-85.142,40.08
			l-12.338-12.338c-3.131-3.13-8.207-3.13-11.337,0c-3.131,3.132-3.131,8.207,0,11.338l25.653,25.653
			c1.565,1.565,3.617,2.347,5.668,2.347s4.103-0.782,5.668-2.347c3.131-3.132,3.131-8.207,0-11.338l-1.967-1.967
			c19.303-20.768,45.604-33.344,73.793-35.359v8.789c0,4.428,3.589,8.017,8.017,8.017c4.428,0,8.017-3.588,8.017-8.017v-8.789
			c8.103,0.579,16.048,2.031,23.719,4.3l-35.348,39.275c-32.048,0.76-62.198,11.616-87.402,31.521
			c-6.798,5.369-15.698,6.651-23.805,3.424c-7.99-3.178-13.496-10.099-14.729-18.518c-0.922-6.293-1.39-12.734-1.39-19.145
			c0-72.199,58.739-130.938,130.938-130.939c34.968,0,67.856,13.639,92.604,38.406c24.747,24.766,38.364,57.664,38.337,92.631
			C386.934,262.302,386.493,268.533,385.627,274.617z"/>
	</g>
</g>
<g>
	<g>
		<path d="M76.426,36.342c-23.281,0-42.221,18.941-42.221,42.221c0,23.281,18.941,42.221,42.221,42.221
			c23.28,0,42.221-18.941,42.221-42.221C118.647,55.283,99.706,36.342,76.426,36.342z M50.238,78.564
			c0-14.441,11.748-26.188,26.188-26.188c4.318,0,8.393,1.057,11.988,2.917c-0.189,0.157-35.101,35.068-35.258,35.259
			C51.295,86.957,50.238,82.882,50.238,78.564z M76.426,104.752c-4.318,0-8.393-1.057-11.988-2.917
			c0.189-0.157,35.101-35.068,35.259-35.258c1.86,3.595,2.917,7.669,2.917,11.988C102.614,93.004,90.866,104.752,76.426,104.752z"/>
	</g>
</g>
<g>
	<g>
		<path d="M256,309.979c-23.281,0-42.221,18.941-42.221,42.221c0,23.28,18.941,42.221,42.221,42.221s42.221-18.941,42.221-42.221
			C298.221,328.92,279.281,309.979,256,309.979z M229.812,352.2c0-14.441,11.748-26.188,26.188-26.188
			c4.318,0,8.392,1.057,11.987,2.916c-0.189,0.158-35.1,35.069-35.259,35.26C230.869,360.593,229.812,356.519,229.812,352.2z
			 M256,378.388c-4.318,0-8.393-1.057-11.988-2.917c0.189-0.157,35.101-35.068,35.258-35.259c1.86,3.596,2.917,7.669,2.917,11.988
			C282.188,366.641,270.441,378.388,256,378.388z"/>
	</g>
</g>
<g>
	<g>
		<path d="M76.426,395.491c-23.281,0-42.221,18.941-42.221,42.221s18.941,42.221,42.221,42.221c23.28,0,42.221-18.941,42.221-42.221
			S99.706,395.491,76.426,395.491z M50.238,437.712c0-14.441,11.748-26.188,26.188-26.188c4.318,0,8.393,1.057,11.988,2.917
			c-0.189,0.157-35.101,35.068-35.258,35.258C51.295,446.105,50.238,442.03,50.238,437.712z M76.426,463.9
			c-4.318,0-8.393-1.057-11.988-2.917c0.189-0.157,35.101-35.068,35.259-35.259c1.86,3.595,2.917,7.669,2.917,11.988
			C102.614,452.153,90.866,463.9,76.426,463.9z"/>
	</g>
</g>
<g>
	<g>
		<path d="M435.574,36.342c-23.28,0-42.221,18.941-42.221,42.221c0,23.281,18.941,42.221,42.221,42.221
			c23.281,0,42.221-18.941,42.221-42.221C477.795,55.283,458.855,36.342,435.574,36.342z M435.574,104.752
			c-14.441,0-26.188-11.747-26.188-26.188c0-4.318,1.057-8.392,2.916-11.987c0.157,0.19,35.069,35.101,35.258,35.259
			C443.966,103.694,439.892,104.752,435.574,104.752z M458.846,90.55c-0.157-0.19-35.069-35.101-35.258-35.258
			c3.595-1.859,7.668-2.916,11.987-2.916c14.441,0,26.188,11.747,26.188,26.188C461.762,82.882,460.705,86.956,458.846,90.55z"/>
	</g>
</g>
<g>
	<g>
		<path d="M435.574,395.491c-23.28,0-42.221,18.941-42.221,42.221s18.941,42.221,42.221,42.221
			c23.281,0,42.221-18.941,42.221-42.221S458.855,395.491,435.574,395.491z M435.574,463.9c-14.441,0-26.188-11.747-26.188-26.188
			c0-4.318,1.057-8.392,2.916-11.987c0.157,0.19,35.069,35.101,35.258,35.259C443.966,462.843,439.892,463.9,435.574,463.9z
			 M458.846,449.698c-0.157-0.19-35.069-35.101-35.258-35.259c3.595-1.859,7.668-2.916,11.987-2.916
			c14.441,0,26.188,11.747,26.188,26.188C461.762,442.03,460.705,446.104,458.846,449.698z"/>
	</g>
</g>
</svg>