<?xml version="1.0" encoding="UTF-8" standalone="no"?>
<svg
   version="1.1"
   x="0px"
   y="0px"
   viewBox="0 0 126.00174 110.03"
   xml:space="preserve"
   id="svg1265"
   width="126.00174"
   height="110.03"
   xmlns="http://www.w3.org/2000/svg"
   xmlns:svg="http://www.w3.org/2000/svg"><defs
     id="defs1269" /><g
     id="g1259"
     transform="translate(0,0.001)"><path
       d="m 125.961,60.896 c -0.013,-0.063 -0.021,-0.126 -0.046,-0.184 -0.022,-0.052 -0.057,-0.096 -0.087,-0.145 -0.039,-0.061 -0.077,-0.121 -0.128,-0.173 -0.013,-0.013 -0.018,-0.03 -0.031,-0.042 -0.032,-0.028 -0.071,-0.038 -0.105,-0.062 -0.058,-0.041 -0.115,-0.079 -0.182,-0.107 -0.061,-0.025 -0.121,-0.038 -0.185,-0.051 -0.043,-0.009 -0.08,-0.031 -0.125,-0.034 l -2.991,-0.22 c -0.561,-0.049 -1.03,0.372 -1.07,0.924 -0.041,0.551 0.373,1.03 0.924,1.07 l 0.569,0.042 c -1.262,0.816 -2.688,1.259 -4.171,1.259 -3.553,0 -6.6,-2.504 -7.868,-6.045 h 4.649 l 2.08,2.071 c 0.19,0.189 0.445,0.291 0.706,0.291 0.105,0 0.212,-0.017 0.315,-0.051 l 7.102,-2.362 c 0.422,-0.141 0.701,-0.543 0.684,-0.987 -0.017,-0.444 -0.326,-0.824 -0.757,-0.932 l -12.647,-3.16 c -0.437,-0.111 -0.892,0.088 -1.113,0.478 -0.221,0.393 -0.154,0.884 0.165,1.201 l 1.457,1.451 h -3.14 c -0.082,-0.541 -0.134,-1.093 -0.134,-1.66 0,-3.72 1.818,-7.057 4.745,-8.708 0.481,-0.271 0.65,-0.882 0.379,-1.362 -0.271,-0.481 -0.882,-0.651 -1.363,-0.38 -3.554,2.006 -5.762,6.01 -5.762,10.45 0,0.565 0.048,1.116 0.118,1.66 h -5.936 L 82.712,35.827 C 82.524,35.639 82.27,35.534 82.005,35.534 H 65.343 V 20.406 c 6.955,-0.23 12.086,-2.838 12.086,-6.255 0,-0.414 -0.079,-0.932 -0.346,-1.498 h 0.505 c 0.552,0 1,-0.447 1,-1 0,-0.553 -0.448,-1 -1,-1 h -2.595 c -0.017,0 -0.032,0.01 -0.049,0.011 -0.091,0.004 -0.176,0.03 -0.263,0.059 -0.044,0.015 -0.09,0.019 -0.132,0.04 -0.097,0.048 -0.18,0.12 -0.259,0.2 -0.019,0.02 -0.047,0.029 -0.065,0.05 l -1.447,1.735 c -0.354,0.425 -0.296,1.055 0.128,1.409 0.187,0.155 0.414,0.231 0.64,0.231 0.287,0 0.571,-0.122 0.769,-0.359 l 0.739,-0.886 c 0.218,0.3 0.376,0.641 0.376,1.009 0,1.912 -4.251,4.034 -10.086,4.255 V 8.741 h 4.103 c 0.379,0 0.726,-0.215 0.895,-0.554 0.169,-0.34 0.132,-0.746 -0.097,-1.049 L 65.142,0.374 c -0.378,-0.5 -1.219,-0.5 -1.597,0 l -5.103,6.764 c -0.229,0.303 -0.266,0.709 -0.097,1.049 0.169,0.339 0.516,0.554 0.895,0.554 h 4.103 v 9.665 c -5.835,-0.222 -10.085,-2.344 -10.085,-4.255 0,-0.707 0.58,-1.326 1.066,-1.722 0.429,-0.349 0.494,-0.979 0.146,-1.407 -0.349,-0.429 -0.979,-0.493 -1.407,-0.146 -1.492,1.213 -1.806,2.45 -1.806,3.274 0,3.417 5.131,6.024 12.085,6.255 V 35.533 H 45.084 l -2.592,-2.582 h 2.991 c 0.463,0 0.865,-0.317 0.973,-0.768 0.108,-0.451 -0.108,-0.916 -0.521,-1.125 L 34.934,25.491 c -0.319,-0.16 -0.697,-0.142 -0.996,0.054 -0.298,0.193 -0.472,0.531 -0.455,0.887 L 33.747,32 c 0.025,0.533 0.465,0.952 0.999,0.952 h 4.911 l 2.592,2.582 H 7.324 c -0.123,0 -0.239,0.029 -0.349,0.07 -0.034,0.013 -0.063,0.029 -0.095,0.045 -0.076,0.038 -0.145,0.085 -0.208,0.14 -0.026,0.023 -0.052,0.043 -0.076,0.069 -0.072,0.078 -0.133,0.165 -0.178,0.265 -0.004,0.009 -0.011,0.016 -0.015,0.025 0,10e-4 -10e-4,0.002 -0.002,0.003 -0.046,0.112 -0.064,0.229 -0.069,0.346 0,0.013 -0.007,0.024 -0.007,0.037 V 48.592 C 2.744,48.982 0,53.959 0,60.26 0,66.823 2.976,71.965 6.774,71.965 h 4.746 l 9.091,9.092 c 0.073,6.446 3.016,11.464 6.768,11.464 h 4.697 l 17.214,17.214 c 0.092,0.093 0.203,0.166 0.326,0.217 0.122,0.051 0.252,0.077 0.382,0.077 h 74.682 c 0.552,0 1,-0.447 1,-1 V 79.207 c 0,-0.13 -0.027,-0.26 -0.077,-0.382 -0.051,-0.123 -0.124,-0.233 -0.217,-0.326 L 104.015,57.128 h 4.351 c 1.383,4.665 5.325,8.045 9.968,8.045 2.006,0 3.922,-0.632 5.579,-1.795 l -0.024,0.624 c -0.021,0.552 0.41,1.017 0.961,1.037 0.013,0.001 0.026,0.001 0.039,0.001 0.535,0 0.978,-0.423 0.999,-0.962 L 126,61.133 c 0.001,-0.016 -0.007,-0.03 -0.007,-0.045 -0.003,-0.066 -0.019,-0.128 -0.032,-0.192 z m -4.54,-4.631 -3.254,1.082 -1.934,-1.925 c 0,0 -0.001,-10e-4 -0.001,-10e-4 l -0.606,-0.604 z M 64.343,2.638 67.439,6.742 h -6.191 z m -28.781,25.415 5.73,2.899 h -1.223 c 0,0 -0.001,0 -0.001,0 H 35.7 Z m 27.781,9.481 v 5.282 H 59.24 c -0.379,0 -0.726,0.215 -0.895,0.554 -0.169,0.34 -0.132,0.746 0.097,1.049 l 5.103,6.763 c 0.189,0.25 0.484,0.397 0.798,0.397 0.313,0 0.609,-0.147 0.798,-0.397 l 5.103,-6.763 C 70.473,44.116 70.51,43.71 70.341,43.37 70.172,43.031 69.825,42.816 69.446,42.816 H 65.343 V 37.534 H 81.592 L 99.186,55.128 H 64.756 L 47.092,37.534 Z m 4.095,7.282 -3.096,4.103 -3.095,-4.103 z M 44.257,37.534 61.921,55.128 H 27.332 L 9.738,37.534 Z M 31.213,90.521 c 1.787,-2.086 2.94,-5.62 2.94,-9.705 0,-4.085 -1.153,-7.619 -2.94,-9.706 h 1.313 c 2.306,0 4.775,3.899 4.775,9.705 0,5.806 -2.469,9.705 -4.775,9.705 H 31.213 Z M 39.3,80.815 C 39.3,74.252 36.324,69.11 32.525,69.11 h -5.146 c -3.311,0 -5.995,3.907 -6.63,9.255 l -6.88,-6.88 c 2.82,-1.414 4.827,-5.837 4.827,-11.226 0,-0.32 -0.014,-0.639 -0.029,-0.958 l 7.429,2.403 c 0.102,0.033 0.205,0.049 0.308,0.049 0.341,0 0.668,-0.176 0.854,-0.479 0.241,-0.396 0.18,-0.903 -0.148,-1.23 l -2.929,-2.917 h 2.324 L 48.998,79.62 v 26.993 L 34.439,92.056 C 37.277,90.66 39.3,86.225 39.3,80.815 Z M 10.609,69.965 c 1.787,-2.086 2.941,-5.62 2.941,-9.705 0,-0.923 -0.065,-1.814 -0.176,-2.671 l 3.245,1.05 c 0.046,0.535 0.078,1.076 0.078,1.621 0,5.783 -2.45,9.672 -4.747,9.702 -0.019,0 -0.037,0.002 -0.056,0.003 z M 17.976,56.977 C 17.891,56.936 17.805,56.906 17.71,56.891 l -2.939,-0.951 3.613,-1.761 2.667,2.656 c 0,0 0,10e-4 0.001,10e-4 l 1.69,1.683 z m 1.315,-4.718 c -0.302,-0.3 -0.761,-0.377 -1.144,-0.189 l -1.074,0.524 C 15.804,50.017 13.966,48.555 11.921,48.555 H 8.324 V 38.95 l 16.18,16.18 h -2.332 z m -7.37,-1.705 c 1.231,0 2.451,1.073 3.359,2.913 l -2.521,1.229 C 12.247,53.024 11.508,51.605 10.608,50.554 Z M 50.411,78.207 29.332,57.128 H 63.929 L 85.093,78.207 Z M 2,60.26 c 0,-5.806 2.469,-9.706 4.774,-9.706 1.729,0 3.549,2.192 4.352,5.735 0.001,0.004 0.002,0.007 0.002,0.011 0.267,1.181 0.421,2.511 0.421,3.96 0,5.806 -2.469,9.705 -4.775,9.705 C 4.469,69.965 2,66.065 2,60.26 Z m 20.604,20.555 c 0,-5.806 2.469,-9.705 4.774,-9.705 2.305,0 4.774,3.899 4.774,9.705 0,5.806 -2.469,9.705 -4.774,9.705 -2.305,0 -4.774,-3.899 -4.774,-9.705 z m 101.075,27.213 H 50.997 V 80.207 h 36.104 l 3.644,3.63 c -2.667,1.918 -4.413,5.039 -4.413,8.567 0,5.82 4.735,10.556 10.556,10.556 1.005,0 1.997,-0.148 2.95,-0.425 l -0.568,1.214 c -0.234,0.5 -0.018,1.096 0.482,1.33 0.137,0.063 0.281,0.094 0.423,0.094 0.376,0 0.736,-0.213 0.906,-0.576 l 1.688,-3.608 c 0.015,-0.031 0.013,-0.065 0.024,-0.097 0.021,-0.061 0.037,-0.121 0.046,-0.185 0.009,-0.065 0.012,-0.127 0.009,-0.192 -0.003,-0.06 -0.01,-0.117 -0.024,-0.176 -0.016,-0.069 -0.041,-0.132 -0.071,-0.195 -0.015,-0.033 -0.017,-0.068 -0.036,-0.1 -0.013,-0.021 -0.034,-0.032 -0.048,-0.051 -0.04,-0.056 -0.088,-0.103 -0.14,-0.151 -0.047,-0.043 -0.091,-0.084 -0.144,-0.117 -0.019,-0.012 -0.031,-0.031 -0.051,-0.041 l -3.181,-1.699 c -0.489,-0.262 -1.094,-0.077 -1.353,0.411 -0.26,0.486 -0.077,1.093 0.411,1.353 l 1.402,0.749 c -0.875,0.294 -1.791,0.463 -2.726,0.463 -4.718,0 -8.556,-3.838 -8.556,-8.556 0,-2.979 1.532,-5.604 3.848,-7.137 l 3.987,3.971 H 93.82 c -0.457,0 -0.855,0.31 -0.969,0.752 -0.113,0.441 0.087,0.904 0.487,1.124 l 10.636,5.844 c 0.15,0.083 0.316,0.124 0.481,0.124 0.19,0 0.381,-0.055 0.546,-0.162 0.309,-0.202 0.482,-0.558 0.45,-0.926 l -0.514,-5.845 c -0.045,-0.516 -0.478,-0.912 -0.996,-0.912 H 99 l -4.926,-4.906 c 0.882,-0.308 1.826,-0.484 2.811,-0.484 1.778,0 3.483,0.54 4.929,1.562 0.452,0.319 1.076,0.211 1.394,-0.239 0.318,-0.451 0.211,-1.075 -0.24,-1.394 -1.786,-1.262 -3.889,-1.929 -6.083,-1.929 -1.553,0 -3.023,0.345 -4.352,0.95 l -2.601,-2.591 h 33.743 v 27.821 z m -20.651,-16.791 0.27,3.066 -5.58,-3.065 z m 19.237,-13.03 H 87.928 L 66.764,57.128 h 34.421 z"
       id="path1253" /><path
       d="m 30.447,80.815 c 0,-2.981 -0.96,-6.189 -3.068,-6.189 -2.108,0 -3.068,3.208 -3.068,6.189 0,2.981 0.96,6.189 3.068,6.189 2.108,0 3.068,-3.207 3.068,-6.189 z m -4.136,0 c 0,-2.625 0.795,-4.065 1.024,-4.196 0.316,0.131 1.111,1.571 1.111,4.196 0,2.625 -0.795,4.065 -1.024,4.196 -0.316,-0.13 -1.111,-1.571 -1.111,-4.196 z"
       id="path1255" /><path
       d="m 9.842,60.26 c 0,-2.981 -0.96,-6.189 -3.068,-6.189 -2.108,0 -3.068,3.208 -3.068,6.189 0,2.981 0.96,6.189 3.068,6.189 2.108,0 3.068,-3.208 3.068,-6.189 z m -4.135,0 c 0,-2.625 0.795,-4.065 1.024,-4.196 0.316,0.131 1.111,1.571 1.111,4.196 0,2.625 -0.795,4.065 -1.024,4.196 C 6.501,64.325 5.707,62.885 5.707,60.26 Z"
       id="path1257" /></g></svg>
