<?xml version="1.0" encoding="UTF-8" standalone="no"?>
<svg
   version="1.1"
   viewBox="-5 -10 94.192802 83.440979"
   id="svg8"
   width="94.192802"
   height="83.440979"
   xmlns="http://www.w3.org/2000/svg"
   xmlns:svg="http://www.w3.org/2000/svg">
  <defs
     id="defs12" />
  <path
     d="m 82.2729,24.78859 c -0.85156,0 -1.6602,0.16016 -2.4102,0.44141 L 66.5817,2.25 c 1.5312,-1.2695 2.5117,-3.1914 2.5117,-5.3281 0,-3.8086 -3.1016,-6.9219 -6.9219,-6.9219 -3.4219,0 -6.2617,2.5 -6.8086,5.7695 H 28.8239 C 28.27312,-7.5 25.4333,-10 22.0153,-10 c -3.8086,0 -6.9219,3.1016 -6.9219,6.9219 0,2.1406 0.98047,4.0586 2.5117,5.3281 L 4.3321,25.242 c -0.75,-0.28125 -1.5586,-0.44141 -2.4102,-0.44141 -3.8086,0 -6.9219,3.1016 -6.9219,6.9219 0,3.8086 3.1016,6.9219 6.9219,6.9219 0.85156,0 1.6602,-0.16016 2.4102,-0.44141 l 13.27,22.988 c -1.5312,1.2695 -2.5117,3.1914 -2.5117,5.3281 0,3.8086 3.1016,6.9219 6.9219,6.9219 3.4219,0 6.2617,-2.5 6.8086,-5.7695 h 26.551 c 0.55078,3.2695 3.3906,5.7695 6.8086,5.7695 3.8086,0 6.9219,-3.1016 6.9219,-6.9219 0,-2.1406 -0.98047,-4.0586 -2.5117,-5.3281 l 13.27,-22.988 c 0.75,0.28125 1.5586,0.44141 2.4102,0.44141 3.8086,0 6.9219,-3.1016 6.9219,-6.9219 0.0039,-3.8203 -3.1094,-6.9336 -6.918,-6.9336 z m -4.4102,1.5938 c -1.25,1.0391 -2.1289,2.5117 -2.4102,4.1797 h -8.7617 c -0.37891,-8.2109 -4.8008,-15.379 -11.309,-19.578 l 4.3789,-7.5898 c 0.75,0.28125 1.5586,0.44141 2.4102,0.44141 0.8516,0 1.6602,-0.16016 2.4102,-0.44141 z m -29.25,26.699 c 1.1406,-1.1602 2.1914,-2.6289 3.1094,-4.3906 0.62891,-1.1992 1.1797,-2.5117 1.6602,-3.8984 2.0117,0.46875 3.8281,1.0586 5.3984,1.7617 -2.6992,3.0156 -6.1992,5.3047 -10.168,6.5273 z m -23.199,-6.543 c 1.5703,-0.69922 3.3984,-1.2891 5.3984,-1.7617 0.48047,1.3906 1.0312,2.6992 1.6602,3.8984 0.92188,1.7617 1.9688,3.2305 3.1094,4.3906 -3.9766,-1.207 -7.4766,-3.4961 -10.168,-6.5273 z m 10.16,-36.199 c -1.1406,1.1602 -2.1914,2.6289 -3.1094,4.3906 -0.62891,1.1992 -1.1797,2.5117 -1.6602,3.8984 -2.0117,-0.46875 -3.8281,-1.0586 -5.3984,-1.7617 2.6992,-3.0156 6.1992,-5.3047 10.168,-6.5273 z m 23.199,6.543 c -1.5703,0.69922 -3.3984,1.2891 -5.3984,1.7617 -0.48047,-1.3906 -1.0312,-2.6992 -1.6602,-3.8984 -0.92188,-1.7617 -1.9688,-3.2305 -3.1094,-4.3906 3.9766,1.207 7.4766,3.4961 10.168,6.5273 z m -17.828,-7.1406 v 10.109 c -2.7305,-0.05859 -5.3984,-0.32031 -7.8594,-0.75 0.42187,-1.1719 0.89062,-2.2812 1.4219,-3.3008 1.7969,-3.4492 4.0547,-5.5508 6.4375,-6.0586 z m 0,12.391 v 8.4297 h -9.8516 c 0.08984,-3.2812 0.51953,-6.4219 1.3008,-9.2617 2.668,0.48828 5.5508,0.76953 8.5508,0.83203 z m 0,10.727 v 8.4297 c -3,0.05859 -5.8789,0.33984 -8.5508,0.82812 -0.76953,-2.8398 -1.2109,-5.9805 -1.3008,-9.2617 z m 0,10.711 v 10.109 c -2.3789,-0.51953 -4.6406,-2.6211 -6.4414,-6.0586 -0.53125,-1.0195 -1.0117,-2.1289 -1.4219,-3.3008 2.4727,-0.42969 5.1328,-0.6875 7.8633,-0.75 z m 2.2969,10.109 v -10.109 c 2.7305,0.05859 5.3984,0.32031 7.8594,0.75 -0.42187,1.1719 -0.89062,2.2812 -1.4219,3.3008 -1.7969,3.4492 -4.0547,5.5508 -6.4375,6.0586 z m 0,-12.391 v -8.4297 h 9.8516 c -0.08984,3.2812 -0.51953,6.4219 -1.3008,9.2617 -2.668,-0.48828 -5.5508,-0.76953 -8.5508,-0.83203 z m 0,-10.727 v -8.4297 c 3,-0.05859 5.8789,-0.33984 8.5508,-0.82812 0.76953,2.8398 1.2109,5.9805 1.3008,9.2617 z m 0,-10.711 v -10.109 c 2.3789,0.51953 4.6406,2.6211 6.4414,6.0586 0.53125,1.0195 1.0117,2.1289 1.4219,3.3008 -2.4727,0.42969 -5.1328,0.6875 -7.8633,0.75 z m -19.297,-1.1406 c 1.8008,0.85938 3.8906,1.5703 6.1992,2.1211 -0.80078,3 -1.2617,6.3008 -1.3516,9.7305 h -9.0195 c 0.23047,-4.4102 1.75,-8.4805 4.1719,-11.852 z m 4.8594,14.148 c 0.08984,3.4297 0.53906,6.7305 1.3516,9.7305 -2.3086,0.55078 -4.4102,1.2617 -6.1992,2.1211 -2.4219,-3.3711 -3.9414,-7.4414 -4.1602,-11.852 z m 31.438,11.852 c -1.8008,-0.85938 -3.8906,-1.5703 -6.1992,-2.1211 0.80078,-3 1.2617,-6.3008 1.3516,-9.7305 h 9.0195 c -0.23047,4.4102 -1.75,8.4805 -4.1719,11.852 z m -4.8594,-14.148 c -0.08984,-3.4297 -0.53906,-6.7305 -1.3516,-9.7305 2.3086,-0.55078 4.4102,-1.2617 6.1992,-2.1211 2.4219,3.3711 3.9414,7.4414 4.1602,11.852 z m 6.8008,-38.262 c 2.5508,0 4.6211,2.0703 4.6211,4.6211 0,2.5508 -2.0703,4.6211 -4.6211,4.6211 -2.5508,0 -4.6211,-2.0703 -4.6211,-4.6211 0,-2.5508 2.0703,-4.6211 4.6211,-4.6211 z m -33.359,5.7695 h 26.551 c 0.28125,1.6719 1.1602,3.1406 2.4102,4.1797 l -4.3789,7.5898 c -3.3906,-1.7617 -7.2305,-2.7617 -11.301,-2.7617 -4.0703,0 -7.9219,1 -11.301,2.7617 l -4.3789,-7.5898 c 1.2383,-1.0391 2.1094,-2.5078 2.3984,-4.1797 z m -6.8203,-5.7695 c 2.5508,0 4.6211,2.0703 4.6211,4.6211 0,2.5508 -2.0703,4.6211 -4.6211,4.6211 -2.5508,0 -4.6211,-2.0703 -4.6211,-4.6211 0,-2.5508 2.0703,-4.6211 4.6211,-4.6211 z m -2.4102,11.09 c 0.75,0.28125 1.5586,0.44141 2.4102,0.44141 0.85156,0 1.6602,-0.16016 2.4102,-0.44141 l 4.3789,7.5898 c -6.5117,4.1914 -10.941,11.359 -11.309,19.578 H 8.7225 c -0.28125,-1.6719 -1.1602,-3.1406 -2.4102,-4.1797 z m -22.301,28.32 c 0,-2.5508 2.0703,-4.6211 4.6211,-4.6211 2.5508,0 4.6211,2.0703 4.6211,4.6211 0,2.5508 -2.0703,4.6211 -4.6211,4.6211 -2.5391,0 -4.6211,-2.0703 -4.6211,-4.6211 z m 9.0312,5.3281 c 1.25,-1.0391 2.1289,-2.5117 2.4102,-4.1797 h 8.7617 c 0.37891,8.2109 4.8008,15.379 11.309,19.578 l -4.3789,7.5898 c -0.75,-0.28125 -1.5586,-0.44141 -2.4102,-0.44141 -0.8516,0 -1.6602,0.16016 -2.4102,0.44141 z m 15.68,34.082 c -2.5508,0 -4.6211,-2.0703 -4.6211,-4.6211 0,-2.5508 2.0703,-4.6211 4.6211,-4.6211 2.5508,0 4.6211,2.0703 4.6211,4.6211 0,2.5508 -2.0703,4.6211 -4.6211,4.6211 z m 33.359,-5.7695 h -26.539 c -0.28125,-1.6719 -1.1602,-3.1406 -2.4102,-4.1797 l 4.3789,-7.5898 c 3.3906,1.7617 7.2305,2.7617 11.301,2.7617 4.0705,0 7.9219,-1 11.301,-2.7617 l 4.3789,7.5898 c -1.25,1.0391 -2.1211,2.5078 -2.4102,4.1797 z m 6.8203,5.7695 c -2.5508,0 -4.6211,-2.0703 -4.6211,-4.6211 0,-2.5508 2.0703,-4.6211 4.6211,-4.6211 2.5508,0 4.6211,2.0703 4.6211,4.6211 0,2.5508 -2.0703,4.6211 -4.6211,4.6211 z m 2.4102,-11.09 c -0.75,-0.28125 -1.5586,-0.44141 -2.4102,-0.44141 -0.85156,0 -1.6602,0.16016 -2.4102,0.44141 l -4.3789,-7.5898 c 6.5117,-4.1914 10.941,-11.359 11.309,-19.578 h 8.7617 c 0.28125,1.6719 1.1602,3.1406 2.4102,4.1797 z m 17.68,-23.699 c -2.5508,0 -4.6211,-2.0703 -4.6211,-4.6211 0,-2.5508 2.0703,-4.6211 4.6211,-4.6211 2.5508,0 4.6211,2.0703 4.6211,4.6211 0,2.5508 -2.082,4.6211 -4.6211,4.6211 z"
     id="path2" />
</svg>
