<?xml version="1.0" encoding="UTF-8" standalone="no"?>
<svg
   version="1.1"
   viewBox="-5 -10 103.59919 111.68141"
   id="svg212"
   width="103.59919"
   height="111.68141"
   xmlns="http://www.w3.org/2000/svg"
   xmlns:svg="http://www.w3.org/2000/svg">
  <defs
     id="defs216" />
  <g
     id="g1220"
     transform="matrix(0.77128301,0,0,0.79315514,-99.754123,-4.5122264)">
    <path
       d="m 214.74015,8.677075 c -7.0703,0 -13.855,2.8086 -18.855,7.8125 -5,5 -7.8125,11.781 -7.8125,18.855 0,7.0703 2.8125,13.855 7.8125,18.855 5,5 11.785,7.8125 18.855,7.8125 7.0742,0 13.855,-2.8125 18.855,-7.8125 5.0039,-5 7.8125,-11.785 7.8125,-18.855 -0.0156,-7.0703 -2.8281,-13.844 -7.8281,-18.84 -4.9961,-5 -11.77,-7.8125 -18.84,-7.8281 z m 0,47.418 c -5.5039,0 -10.781,-2.1875 -14.672,-6.0781 -3.891,-3.8906 -6.0781,-9.168 -6.0781,-14.672 0,-5.504 2.1875,-10.781 6.0781,-14.672 3.8906,-3.891 9.168,-6.0781 14.672,-6.0781 5.504,0 10.781,2.1875 14.672,6.0781 3.891,3.8906 6.0781,9.168 6.0781,14.672 -0.008,5.5 -2.1953,10.773 -6.0859,14.664 -3.8906,3.891 -9.1641,6.0781 -14.664,6.0859 z"
       id="path202" />
    <rect
       style="fill:#000000;fill-opacity:0;stroke-width:1.4682"
       id="rect426"
       width="134.32059"
       height="140.80652"
       x="122.8526"
       y="-6.9189157" />
    <path
       d="m 165.58573,46.345177 c -4.9141,-0.0078 -9.6328,1.9414 -13.109,5.4102 -3.4805,3.4727 -5.4414,8.1836 -5.4453,13.102 -0.004,4.9141 1.9453,9.6289 5.418,13.109 3.4727,3.4766 8.1836,5.4336 13.102,5.4375 4.9141,0 9.6289,-1.9492 13.105,-5.4258 3.4766,-3.4727 5.4297,-8.1875 5.4297,-13.105 0,-4.9062 -1.9453,-9.6172 -5.4141,-13.09 -3.4688,-3.4727 -8.1758,-5.4297 -13.086,-5.4375 z m 0,31.109 v 0.0039 c -5.1055,0.01172 -9.7148,-3.0586 -11.672,-7.7734 -1.9609,-4.7148 -0.88281,-10.145 2.7266,-13.758 3.6133,-3.6094 9.043,-4.6875 13.758,-2.7266 4.7148,1.9609 7.7852,6.5664 7.7734,11.672 -0.0156,6.9453 -5.6406,12.57 -12.586,12.586 z"
       id="path204" />
    <path
       d="m 204.63058,75.6449 c -5.3906,0 -10.254,3.25 -12.316,8.2305 -2.0625,4.9844 -0.92188,10.719 2.8906,14.531 3.81248,3.812 9.5469,4.9531 14.531,2.8906 4.9805,-2.0625 8.2305,-6.9258 8.2305,-12.32 -0.0156,-7.3555 -5.9766,-13.316 -13.336,-13.332 z m 0,20.75 c -3,0 -5.7031,-1.8047 -6.8516,-4.5781 -1.1484,-2.7695 -0.51172,-5.9609 1.6094,-8.082 2.1211,-2.1211 5.3086,-2.7578 8.082,-1.6094 2.7695,1.1484 4.5781,3.8555 4.5781,6.8516 0,4.0977 -3.3203,7.418 -7.418,7.418 z"
       id="path206" />
  </g>
</svg>
