<?xml version="1.0" encoding="UTF-8" standalone="no"?>
<svg
   version="1.1"
   viewBox="-5 -10 87.304199 88.265762"
   id="svg1302"
   width="87.304199"
   height="88.265762"
   xmlns="http://www.w3.org/2000/svg"
   xmlns:svg="http://www.w3.org/2000/svg">
  <defs
     id="defs1306" />
  <path
     d="m 15.37108,42.238182 c -3.2461,0 -3.4844,-2.7266 -7.7812,-2.7266 -4.2695,0 -4.6094,2.7266 -7.7656,2.7266 -1.3711,0 -2.082,-0.39844 -2.6719,-0.82031 -0.80469,-0.44531 -1.4805,-0.22266 -1.918,0.35547 -0.32422,0.64844 -0.19922,0.75391 -0.23438,0.89062 v 31.137 c 0,2.4648 2,4.4648 4.4531,4.4648 h 78.398 c 2.4531,0 4.4531,-2 4.4531,-4.4648 v -31.246 c 0,-0.52734 -0.31641,-1 -0.73828,-1.2188 -0.4375,-0.21875 -0.96094,-0.21484 -1.4102,0.08203 -0.62891,0.4375 -1.3008,0.82031 -2.6562,0.82031 -3.2461,0 -3.4844,-2.7266 -7.7812,-2.7266 -4.2031,0 -4.5742,2.7266 -7.7539,2.7266 -3.2969,0 -3.6484,-3.0312 -8.3828,-2.6992 -0.16406,0.01563 -0.34375,0.02734 -0.49219,0.05469 1.2617,-6.3828 -1.5781,-13.043 -7.3711,-16.508 v -3.0703 h 1.0977 c 0.75781,0 1.3711,-0.61328 1.3711,-1.3711 0,-0.75781 -0.61328,-1.3711 -1.3711,-1.3711 h -1.0977 v -3.5391 h 2.9961 c 0.75781,0 1.3711,-0.61328 1.3711,-1.3711 0,-0.75781 -0.61328,-1.3711 -1.3711,-1.3711 h -2.9961 l -0.0039,-3.5312 h 1.0977 c 0.75781,0 1.3711,-0.61328 1.3711,-1.3711 0,-0.75782 -0.61328,-1.3711 -1.3711,-1.3711 h -1.0977 v -3.5391 h 2.9961 c 0.75781,0 1.3711,-0.61328 1.3711,-1.3711 0,-0.75782 -0.61328,-1.3711 -1.3711,-1.3711 h -2.9961 v -0.37109 c 0,-4.4062 -3.5703,-8.0664 -8.082,-8.0664 -4.4531,0 -8.082,3.6172 -8.082,8.0664 v 25.016 c -5.8516,3.5 -8.6211,10.219 -7.3711,16.48 -0.04297,0 -0.07031,0 -0.10938,0.01563 -3.2539,0.41016 -3.7852,2.6602 -6.6992,2.6602 z m 23.289,8.7266 c 3.1367,0 3.4531,2.7266 7.7812,2.7266 4.3594,0 4.5508,-2.7266 7.7539,-2.7266 3.1758,0 3.4531,2.7266 7.7656,2.7266 4.3594,0 4.5352,-2.7266 7.7539,-2.7266 3.1211,0 3.4688,2.7266 7.7812,2.7266 0.80859,0 1.4805,-0.09375 2.0703,-0.27344 v 6.3008 c -0.49219,0.27344 -1.1094,0.46484 -2.0703,0.46484 -3.1094,0 -3.5352,-2.7266 -7.7812,-2.7266 -4.1875,0 -4.6367,2.7266 -7.7539,2.7266 -3.1914,0 -3.4492,-2.7266 -7.7656,-2.7266 -4.1875,0 -4.6367,2.7266 -7.7539,2.7266 -3.1133,0 -3.5391,-2.7266 -7.7812,-2.7266 -4.1836,0 -4.6367,2.7266 -7.7539,2.7266 -3.1641,0 -3.4922,-2.7266 -7.7812,-2.7266 -4.2188,0 -4.6211,2.7266 -7.7539,2.7266 -3.1133,0 -3.5273,-2.7266 -7.7812,-2.7266 -4.2695,0 -4.6094,2.7266 -7.7656,2.7266 -0.94531,0 -1.5898,-0.19141 -2.082,-0.45312 v -6.3164 c 0.58984,0.17969 1.2734,0.27344 2.082,0.27344 3.418,0 4.5391,-1.8242 6.043,-2.4258 0.98047,-0.40234 2.4492,-0.40625 3.4375,0 1.6094,0.65234 2.6133,2.4258 6.0703,2.4258 4.2617,0 4.6172,-2.7266 7.7539,-2.7266 3.2422,0 3.4297,2.7266 7.7812,2.7266 4.2227,0.0039 4.668,-2.7227 7.75,-2.7227 z m 40.902,22.836 c 0,0.94531 -0.76562,1.7266 -1.7109,1.7266 h -78.398 c -0.94531,0 -1.7109,-0.78125 -1.7109,-1.7266 v -11.152 c 0.58984,0.17969 1.2734,0.27344 2.082,0.27344 4.3047,0 4.5352,-2.7266 7.7656,-2.7266 1.3633,0 2.1211,0.41797 3.1094,1.1211 1.0703,0.75391 2.2891,1.6016 4.6719,1.6016 3.4258,0 4.4727,-1.8047 6.082,-2.4375 1.0078,-0.39844 2.4023,-0.375 3.3555,0 1.7305,0.65625 2.6289,2.4375 6.0977,2.4375 4.3047,0 4.5586,-2.7266 7.7539,-2.7266 3.1719,0 3.4531,2.7266 7.7812,2.7266 4.3438,0 4.5312,-2.7266 7.7539,-2.7266 3.2305,0 3.4414,2.7266 7.7656,2.7266 4.3516,0 4.5391,-2.7266 7.7539,-2.7266 3.25,0 3.4102,2.7266 7.7812,2.7266 0.80859,0 1.4805,-0.09766 2.0703,-0.27344 z m -48,-48.699 c 0.4375,-0.23438 0.72656,-0.69922 0.72656,-1.207 v -25.82 c 0,-2.9453 2.3984,-5.3281 5.3438,-5.3281 3.0391,0 5.3438,2.4648 5.3438,5.3281 v 25.82 c 0,0.50781 0.27344,0.97266 0.72656,1.207 5.8867,3.1133 8.2773,9.9375 6.1914,15.781 -1.6211,1.2656 -2.6523,1.4727 -3.8477,1.3438 4.0703,-5.6953 1.3555,-13.742 -5.3203,-15.797 v -17.945 c 0,-0.37109 -0.31641,-0.68359 -0.68359,-0.68359 h -4.8203 c -0.38281,0 -0.68359,0.31641 -0.68359,0.68359 l -0.0039,17.945 c -6.5352,2.0039 -9.2617,9.7344 -5.5742,15.41 -1.2227,-0.58984 -1.8047,-1.5078 -3.9336,-2.082 -1.4492,-5.6406 1.0938,-11.777 6.5352,-14.656 z m -7.0547,17.328 h 0.01563 c 0,0.03906 0.02734,0.08203 0.05469,0.125 h 0.26172 c 1.6562,0.64453 3.0078,2.8516 7.1797,2.3555 h 0.01562 c 3.5234,-0.41016 3.6719,-2.9141 7.1641,-2.6289 0.39844,0.03906 0.75,0.10156 1.125,0.26172 0.01563,0 0.02734,0 0.04297,0.01563 h 0.01563 c 0.87109,0.35156 1.8789,1.25 2.6992,1.6562 h 0.01562 c 1.8086,1.0156 4.8398,1.0469 6.7383,-0.02734 1.0312,-0.53125 1.5469,-1.082 2.3164,-1.4648 v -0.01563 c 5.2461,-1.7344 4.5469,2.2734 9.8203,2.2734 2.3828,0 3.5898,-0.84766 4.6836,-1.6172 1.2227,-0.85156 1.9609,-1.2148 3.6016,-1.082 0.36719,0.03906 0.74219,0.09766 1.125,0.26172 0.01563,0 0.02734,0 0.04297,0.01563 h 0.01562 c 1.6875,0.68359 3.1953,3.0781 7.6172,2.2734 0.19922,-0.03516 0.51953,-0.10937 0.51953,-0.10937 v 5.7812 c -0.49219,0.26172 -1.1094,0.45312 -2.0703,0.45312 -3.1914,0 -3.4961,-2.7266 -7.7812,-2.7266 -4.207,0 -4.5703,2.7266 -7.7539,2.7266 -3.1055,0 -3.5234,-2.7266 -7.7656,-2.7266 -4.207,0 -4.5703,2.7266 -7.7539,2.7266 -3.2344,0 -3.4648,-2.7266 -7.7812,-2.7266 -4.25,0 -4.582,2.7266 -7.7539,2.7266 -3.0117,0 -3.625,-2.7266 -7.7812,-2.7266 -4.2344,0 -4.5664,2.7266 -7.7539,2.7266 -3.1914,0 -3.4961,-2.7266 -7.7812,-2.7266 -4.2695,0 -4.6172,2.7266 -7.7656,2.7266 -0.94531,0 -1.5898,-0.19141 -2.082,-0.45312 v -5.7812 c 0.13672,0 0.77734,0.26172 2.082,0.26172 4.7344,0 4.8594,-3.4141 8.7109,-2.6445 0.14062,0.02734 0.35547,0.05078 0.71094,0.20703 0.01563,0 0.02734,0 0.04297,0.01563 h 0.01172 c 1.6133,0.65234 2.6055,2.4258 6.0703,2.4258 3.7305,0 4.6172,-2.0898 6.3828,-2.5352 0.67578,-0.22656 1.8008,-0.29297 2.7422,-0.02344 z"
     id="path1296" />
</svg>
